<svg width="38" height="35" viewBox="0 0 38 35" fill="none" xmlns="http://www.w3.org/2000/svg">
<path d="M36.2727 21.0014H34.5455C34.5455 14.2296 29.1391 8.75269 22.4545 8.75269H20.7273V6.53042C21.2526 6.22318 21.6887 5.78126 21.9919 5.24907C22.2952 4.71689 22.4547 4.11321 22.4545 3.49874C22.4544 2.88428 22.2945 2.28068 21.9911 1.74865C21.6876 1.21663 21.2512 0.774927 20.7257 0.467966C20.2003 0.161005 19.6043 -0.000393103 18.9978 7.18986e-07C18.3912 0.000394541 17.7955 0.162567 17.2704 0.47021C16.7454 0.777852 16.3095 1.22012 16.0067 1.75254C15.7039 2.28496 15.5448 2.88876 15.5455 3.50323C15.5455 4.7981 16.2364 5.93548 17.2727 6.53042V8.75269H15.5455C8.86091 8.75269 3.45455 14.2296 3.45455 21.0014H1.72727C0.777273 21.0014 0 21.7889 0 22.7513V28.0007C0 28.9631 0.777273 29.7505 1.72727 29.7505H3.45455V31.5004C3.45455 32.4285 3.81851 33.3187 4.46636 33.975C5.11421 34.6313 5.99289 35 6.90909 35H31.0909C33.0082 35 34.5455 33.4427 34.5455 31.5004V29.7505H36.2727C37.2227 29.7505 38 28.9631 38 28.0007V22.7513C38 21.7889 37.2227 21.0014 36.2727 21.0014ZM11.2273 28.0007C10.082 28.0007 8.98367 27.5398 8.17386 26.7194C7.36404 25.8991 6.90909 24.7864 6.90909 23.6262C6.90909 22.1913 7.6 20.9314 8.63636 20.1265L15.2518 25.166C14.6818 26.8108 13.0755 28.0007 11.2273 28.0007ZM26.7727 28.0007C24.9245 28.0007 23.3182 26.8108 22.7482 25.166L29.3636 20.1265C30.4 20.9314 31.0909 22.1913 31.0909 23.6262C31.0909 24.7864 30.636 25.8991 29.8261 26.7194C29.0163 27.5398 27.918 28.0007 26.7727 28.0007Z" fill="black"/>
</svg>
